PathFileType	4	(X/Y/Z)	D:\Share\Shared_Data\Ergonomics\Sit To Stand Pertubation\S2\Perturbed.trc
DataRate	CameraRate	NumFrames	NumMarkers	Units	OrigDataRate	OrigDataStartFrame	OrigNumFrames	
100	100	18	18	m	100	11624	261
Frame#	Time	R_Toe			R_ASIS			R_Pelvis			V_Sacral			L_Pelvis			L_ASIS			Clavical			R_Acromium			L_Acromium			Sternum			Torso			R_Thigh_Med			R_Thigh_Lat			R_Thigh			R_Shank_Med			R_Shank_Lat			R_Shank			R_Heel			
		X1	Y1	Z1	X2	Y2	Z2	X3	Y3	Z3	X4	Y4	Z4	X5	Y5	Z5	X6	Y6	Z6	X7	Y7	Z7	X8	Y8	Z8	X9	Y9	Z9	X10	Y10	Z10	X11	Y11	Z11	X12	Y12	Z12	X13	Y13	Z13	X14	Y14	Z14	X15	Y15	Z15	X16	Y16	Z16	X17	Y17	Z17	X18	Y18	Z18	

11624	116.23	0.43323181	0.069575912	0.14842909	0.37808417	1.0300217	0.13771484	0.30023871	1.0293838	0.18246126	0.1587144	1.0254668	0.018865475	0.25759967	1.0338411	-0.16106976	0.35381854	1.045678	-0.13795654	0.3630051	1.4617681	0.0057673402	0.26633682	1.4772036	0.2149738	0.24589316	1.4912249	-0.17467111	0.41434866	1.3041814	-0.0021818547	0.36951965	1.4244718	-0.11071883	0.33103156	0.50084406	0.093819878	0.31556738	0.524646	0.1796275	0.39264905	0.6845351	0.15911208	0.29893011	0.1084975	0.10995724	0.27682562	0.098157684	0.20243637	0.2885986	0.37426044	0.21295404	0.1963652	0.058190823	0.14989636
11625	116.24	0.43337851	0.068926842	0.14837694	0.37982764	1.0298585	0.13767786	0.3020394	1.0292266	0.18257076	0.16025871	1.0251903	0.019183186	0.25876639	1.0334148	-0.16094803	0.35502814	1.0453473	-0.13803484	0.36386389	1.4615012	0.0056982112	0.26728732	1.4769363	0.2149623	0.24654654	1.4908267	-0.17462041	0.41533801	1.3039479	-0.0023038843	0.37027591	1.4241794	-0.11079066	0.33050742	0.50078522	0.093764664	0.3151947	0.5245882	0.17945323	0.39311545	0.68408698	0.15894089	0.29912762	0.10837225	0.10976002	0.27698868	0.098298553	0.20212195	0.28814532	0.37428882	0.21287064	0.19650232	0.058132343	0.14974203
11626	116.25	0.43348752	0.068411263	0.14834854	0.38154919	1.0296885	0.13762404	0.30386172	1.0290834	0.18266188	0.16178247	1.0249441	0.019489487	0.25991888	1.0329895	-0.16084448	0.35622006	1.0449855	-0.13812386	0.36475534	1.4612168	0.0056205134	0.26827188	1.4766501	0.21494629	0.24722687	1.4904274	-0.17457822	0.41633557	1.3036888	-0.0024419775	0.37105737	1.4238719	-0.11087066	0.32989691	0.50072168	0.093743301	0.31473648	0.52453961	0.17930887	0.39351193	0.68363129	0.15878397	0.29926602	0.10827525	0.10960768	0.27709283	0.0984123	0.20185132	0.28760074	0.37432816	0.21283324	0.19661751	0.058100128	0.1496163
11627	116.26	0.43356274	0.068014618	0.14834203	0.38324365	1.0295104	0.13755719	0.30569324	1.0289507	0.18274121	0.16328722	1.0247277	0.019784819	0.26106113	1.0325648	-0.16075427	0.3573981	1.0445922	-0.13821927	0.36567734	1.4609146	0.005532712	0.26928674	1.4763461	0.21492325	0.2479315	1.4900288	-0.17454236	0.41734369	1.3034062	-0.0025969601	0.3718642	1.423551	-0.11096144	0.32919809	0.50065176	0.093752281	0.31419849	0.52449695	0.1791989	0.39384741	0.68316705	0.15864049	0.29935141	0.10820119	0.10949208	0.27714133	0.098500397	0.20162297	0.28697079	0.37437354	0.21284125	0.1967081	0.058107491	0.14952457
11628	116.27	0.4336106	0.067716682	0.1483533	0.38490518	1.0293223	0.13748312	0.30751315	1.0288228	0.18281569	0.16477306	1.0245391	0.020068783	0.26219656	1.0321371	-0.16066895	0.35856488	1.0441683	-0.13831552	0.36662735	1.4605951	0.005433557	0.27032812	1.4760251	0.21489091	0.24865892	1.4896333	-0.17451192	0.41836469	1.3031021	-0.0027683003	0.37269644	1.4232188	-0.11106483	0.32840726	0.50057794	0.093783684	0.31359106	0.52445435	0.17912372	0.39413623	0.68269434	0.15850633	0.29939325	0.10814264	0.1094015	0.27714221	0.098566284	0.20143109	0.28626938	0.37441977	0.21288968	0.19677361	0.058160408	0.14946706
11629	116.28	0.43363876	0.067494743	0.14837662	0.38652817	1.0291215	0.13740903	0.3093009	1.0286936	0.18289076	0.16623784	1.0243734	0.020340376	0.26332642	1.0317057	-0.16058275	0.35972177	1.0437172	-0.13840617	0.36760275	1.4602584	0.0053219347	0.27139252	1.4756884	0.2148476	0.24940923	1.4892437	-0.17448865	0.41939975	1.3027786	-0.0029544625	0.37355347	1.4228765	-0.11118182	0.32752478	0.50050354	0.093827156	0.31292966	0.52440466	0.17907913	0.3943967	0.68221417	0.15837541	0.29940234	0.10809145	0.10932278	0.2771069	0.098614616	0.20126633	0.28551694	0.37446185	0.21297	0.19681613	0.058257732	0.14943939
11630	116.29	0.43365494	0.067326859	0.14840536	0.38810745	1.0289056	0.13734268	0.31104077	1.0285568	0.18297061	0.16767731	1.0242244	0.020599117	0.26444885	1.0312747	-0.1604962	0.36086905	1.0432422	-0.13848427	0.36860074	1.4599039	0.0051975803	0.27247623	1.4753372	0.21479218	0.25018355	1.4888616	-0.17447621	0.4204483	1.3024384	-0.0031524701	0.37443411	1.4225249	-0.1113125	0.32656317	0.50042801	0.093872231	0.31223517	0.52434027	0.17905869	0.39464853	0.68172894	0.15824142	0.29938971	0.10804034	0.10924397	0.27704816	0.098650101	0.20111771	0.28473907	0.37449515	0.21307184	0.19684143	0.058384979	0.14943132
11631	116.3	0.4336655	0.067194267	0.14843327	0.3896398	1.0286733	0.13729094	0.31272134	1.0284066	0.18305968	0.16908603	1.0240854	0.020846407	0.26555997	1.0308495	-0.16041237	0.36200531	1.0427478	-0.13854398	0.36961761	1.4595327	0.0050616961	0.27357535	1.4749736	0.21472424	0.25098329	1.4884871	-0.17447861	0.42150845	1.3020831	-0.0033576803	0.37533667	1.4221627	-0.11145588	0.32554709	0.50034695	0.093909836	0.31153171	0.52425519	0.17905638	0.39490921	0.68124091	0.15809958	0.29936499	0.10798426	0.10915681	0.27697797	0.098676819	0.20097484	0.2839639	0.37451593	0.21318556	0.19685797	0.058516266	0.14942845
11632	116.31	0.43367508	0.067082588	0.14845538	0.39112408	1.0284238	0.13725839	0.31433533	1.0282391	0.18316258	0.17045831	1.02395	0.021086014	0.26665442	1.030433	-0.16033107	0.36312717	1.0422384	-0.13858203	0.3706492	1.459147	0.0049167318	0.27468567	1.4746011	0.21464415	0.25180983	1.4881176	-0.1744986	0.42257693	1.3017134	-0.0035645316	0.37625952	1.4217881	-0.1116096	0.3245054	0.50025784	0.093933319	0.31084451	0.52414532	0.17906863	0.39519116	0.68075244	0.15794853	0.29933603	0.10792121	0.10905815	0.27690601	0.098698296	0.20082954	0.28321933	0.37452182	0.21330367	0.19687477	0.058620693	0.14941566
11633	116.32	0.43368652	0.066982124	0.14846849	0.39256113	1.0281578	0.13724625	0.31587927	1.0280529	0.18328322	0.17178944	1.0238129	0.021323467	0.26772638	1.0300247	-0.16024957	0.36422913	1.0417172	-0.13859819	0.37169162	1.4587493	0.0047658658	0.27580292	1.474223	0.2145528	0.25266466	1.4877509	-0.17453688	0.42364856	1.3013284	-0.003767787	0.37720081	1.4213995	-0.11177023	0.32346646	0.50016171	0.093939316	0.31019757	0.52400873	0.17909494	0.39550201	0.68026617	0.15779167	0.29930826	0.10785195	0.10894931	0.27683899	0.098717453	0.20067766	0.28253107	0.37451227	0.21342166	0.19690012	0.058667179	0.14937886
11634	116.33	0.43370105	0.066887375	0.14847089	0.39395224	1.0278782	0.13725279	0.31735345	1.0278496	0.18342297	0.17307562	1.0236703	0.021564493	0.26876917	1.0296228	-0.16016762	0.36530521	1.041188	-0.13859467	0.37274185	1.4583439	0.0046127071	0.27692261	1.4738439	0.21445178	0.25354933	1.4873844	-0.17459209	0.42471655	1.3009282	-0.0039633093	0.37815842	1.4209965	-0.11193374	0.32245981	0.50005865	0.093928513	0.30961148	0.52384662	0.17913719	0.39584558	0.67978595	0.15763698	0.29928461	0.10777866	0.10883416	0.2767807	0.098736359	0.20051945	0.28192007	0.37448868	0.2135383	0.19694055	0.05862991	0.14930708
11635	116.34	0.43371866	0.066795807	0.14846219	0.39529861	1.0275896	0.13727469	0.3187605	1.0276354	0.18357974	0.17431372	1.0235222	0.02181304	0.26977612	1.029225	-0.1600864	0.36635062	1.0406531	-0.13857545	0.3737977	1.4579342	0.0044610548	0.27804059	1.4734695	0.2143439	0.25446451	1.4870165	-0.1746615	0.42577362	1.3005142	-0.0041479392	0.37912933	1.4205792	-0.11209576	0.32151715	0.49994431	0.093905449	0.30910214	0.5236618	0.17919843	0.39622244	0.67931708	0.15749605	0.29926538	0.10770371	0.10871728	0.27673276	0.098756073	0.20035916	0.28140189	0.37445404	0.2136552	0.1969995	0.058496593	0.14919528
11636	116.35	0.43373831	0.066706627	0.14844354	0.3966008	1.0272982	0.13730824	0.32010382	1.0274185	0.18374802	0.17550128	1.0233718	0.022070244	0.27074219	1.0288286	-0.16000392	0.36736172	1.0401161	-0.1385448	0.3748573	1.4575254	0.0043141303	0.27915277	1.4731068	0.214233	0.25540945	1.4866465	-0.17474248	0.42681332	1.3000897	-0.0043189168	0.38010968	1.4201504	-0.1122522	0.32066718	0.49981113	0.09387632	0.30868137	0.52345801	0.17928099	0.3966312	0.67886548	0.15738162	0.2992489	0.10762886	0.10860264	0.27669592	0.098776802	0.20020316	0.28098639	0.37441159	0.2137755	0.19707509	0.058280037	0.149049
11637	116.36	0.43375903	0.066620346	0.14841684	0.39785864	1.0270114	0.1373504	0.3213877	1.0272086	0.18392015	0.17663669	1.0232269	0.022335106	0.27166418	1.0284332	-0.15991606	0.36833524	1.0395822	-0.13850572	0.3759187	1.4571223	0.0041739297	0.28025552	1.4727637	0.21412268	0.25638171	1.486277	-0.1748325	0.42783145	1.2996609	-0.0044734755	0.38109497	1.4197142	-0.11239978	0.31993057	0.49965125	0.093846031	0.3083577	0.52323975	0.17938516	0.39707153	0.67843811	0.15730537	0.29923215	0.10755471	0.10849294	0.27667035	0.098798279	0.20005772	0.28067947	0.37436395	0.21390247	0.19715924	0.058025379	0.14888774
11638	116.37	0.43378015	0.066537949	0.14838414	0.39907114	1.0267365	0.13739915	0.32261685	1.027015	0.18408836	0.17771924	1.0230968	0.022606112	0.27253986	1.0280422	-0.15982036	0.36926773	1.0390598	-0.13845901	0.37697937	1.4567316	0.0040415235	0.28134549	1.4724471	0.21401578	0.25737732	1.4859125	-0.17492764	0.42882559	1.2992367	-0.0046089654	0.38208078	1.4192769	-0.11253658	0.3193187	0.49945767	0.093816124	0.30813666	0.52301105	0.17950826	0.39754401	0.67804144	0.15727634	0.29921225	0.10748098	0.10838912	0.27665625	0.098820076	0.19992766	0.28048288	0.37431335	0.21403757	0.1972403	0.057796516	0.14873907
11639	116.38	0.43380191	0.066460075	0.1483474	0.40023676	1.0264797	0.1374534	0.32379568	1.0268447	0.18424771	0.17874913	1.0229921	0.022882507	0.27336752	1.0276643	-0.15971657	0.37015518	1.0385598	-0.13840361	0.37803625	1.4563594	0.003917362	0.28241971	1.472165	0.21391422	0.2583905	1.4855601	-0.17502228	0.42979562	1.298826	-0.0047235117	0.38306342	1.4188468	-0.11266176	0.31883496	0.49922482	0.093784134	0.30802139	0.52277661	0.17964496	0.39804819	0.67768115	0.15729947	0.29918744	0.10740686	0.10829029	0.27665411	0.098841881	0.19981534	0.28039536	0.37426132	0.21417896	0.19730859	0.057647148	0.14862575
11640	116.39	0.43382486	0.06638665	0.14830856	0.40135376	1.0262454	0.1375132	0.3249274	1.026702	0.18439726	0.17972734	1.0229227	0.023164938	0.27414597	1.0273112	-0.15960384	0.37099377	1.0380936	-0.1383376	0.37908615	1.4560123	0.0038013785	0.28347653	1.471923	0.2138185	0.25941486	1.4852278	-0.17511212	0.43074329	1.298439	-0.0048166022	0.38403998	1.4184344	-0.11277516	0.31847601	0.49894843	0.093743904	0.30801263	0.52254169	0.17978824	0.39858188	0.67736066	0.15737508	0.29915771	0.10733121	0.1081937	0.27666452	0.098863899	0.19972006	0.28041235	0.37420944	0.21432172	0.19735982	0.057604649	0.14855821
11641	116.4	0.43384998	0.066317093	0.14826906	0.4024205	1.0260361	0.13757968	0.32601428	1.0265879	0.18453918	0.18065503	1.0228958	0.023455357	0.27487521	1.026995	-0.15947804	0.37178061	1.037673	-0.13825845	0.38012561	1.4556962	0.0036935813	0.28451547	1.4717271	0.21372798	0.26044385	1.4849252	-0.17519559	0.4316709	1.298083	-0.0048891683	0.38500797	1.4180493	-0.11287698	0.3182326	0.49862604	0.093687164	0.30810855	0.52231219	0.17993054	0.39914059	0.67708057	0.15749881	0.2991239	0.10725282	0.10809558	0.27668744	0.098887093	0.19963785	0.28052649	0.37415918	0.21445891	0.19739407	0.057672054	0.14853601
